<?xml version="1.0" standalone="no"?>
<!DOCTYPE svg PUBLIC "-//W3C//DTD SVG 20010904//EN"
 "http://www.w3.org/TR/2001/REC-SVG-20010904/DTD/svg10.dtd">
<svg version="1.0" xmlns="http://www.w3.org/2000/svg"
 width="222.000000pt" height="227.000000pt" viewBox="0 0 222.000000 227.000000"
 preserveAspectRatio="xMidYMid meet">

<g transform="translate(0.000000,227.000000) scale(0.100000,-0.100000)"
fill="#000000" stroke="none">
<path d="M1913 2245 c-36 -15 -73 -68 -73 -103 0 -12 7 -39 15 -59 l16 -37
-105 -105 -104 -104 -54 35 c-80 53 -148 85 -245 115 -79 24 -104 27 -248 27
-138 1 -171 -2 -238 -22 -97 -28 -189 -69 -262 -118 l-56 -37 -32 29 c-18 16
-62 57 -98 93 l-67 63 14 34 c24 58 18 102 -19 139 -44 44 -93 53 -144 29 -31
-15 -41 -28 -53 -66 -12 -38 -20 -49 -42 -53 -99 -22 -127 -152 -47 -219 33
-28 86 -34 133 -16 23 8 32 2 114 -88 l89 -97 -30 -40 c-68 -92 -157 -319
-157 -401 0 -16 -12 -28 -47 -47 -26 -13 -49 -29 -50 -34 -2 -6 16 -14 40 -17
l44 -7 7 -78 c12 -151 60 -294 142 -422 l42 -66 -92 -92 c-88 -87 -94 -91
-120 -81 -37 14 -62 13 -100 -5 -43 -20 -66 -63 -66 -120 0 -38 5 -52 29 -76
16 -16 43 -32 59 -35 23 -5 30 -13 40 -50 26 -95 159 -114 216 -32 19 27 21
96 4 133 -11 25 -7 30 77 115 49 50 92 90 96 90 3 0 39 -22 80 -48 41 -27 94
-57 119 -67 25 -11 74 -44 110 -74 96 -80 158 -106 250 -105 86 0 151 28 223
93 25 22 72 49 113 65 40 15 109 52 155 82 l83 55 99 -99 98 -98 -16 -39 c-31
-72 4 -146 76 -165 73 -20 149 26 149 90 0 22 6 29 38 38 61 19 87 53 87 119
0 51 -3 57 -39 90 -38 35 -40 36 -101 30 l-61 -6 -93 93 -92 92 37 55 c94 139
154 328 154 486 0 49 2 52 33 63 l32 11 -37 20 c-27 14 -38 26 -38 43 0 84
-84 299 -156 399 l-36 50 98 98 98 98 57 -6 c69 -7 110 13 135 65 34 72 -1
151 -78 174 -31 9 -38 16 -38 37 0 34 -23 67 -60 86 -36 18 -65 18 -107 0z
m108 -44 c16 -13 23 -30 25 -62 2 -44 2 -44 43 -50 51 -7 82 -35 83 -78 1 -43
-19 -77 -55 -92 -25 -11 -38 -10 -73 3 l-44 15 -107 -108 -107 -109 -48 47
-48 47 112 113 112 112 -17 36 c-24 51 -22 91 8 120 30 30 83 33 116 6z
m-1690 -30 c34 -35 35 -51 8 -110 l-20 -45 103 -103 102 -103 -44 -45 -44 -45
-101 100 -101 101 -38 -16 c-47 -20 -89 -12 -116 22 -48 61 -8 143 70 143 l40
0 0 45 c0 57 25 85 76 85 26 0 43 -8 65 -29z m1034 -226 c174 -58 309 -150
415 -283 69 -88 134 -213 125 -242 -4 -13 -1 -22 10 -26 10 -4 13 -13 9 -26
-4 -15 -3 -18 7 -13 9 6 11 4 6 -7 -3 -9 -1 -20 5 -26 8 -8 6 -16 -6 -28 -16
-16 -17 -15 -14 12 l3 29 -67 3 c-45 2 -68 -1 -68 -8 0 -14 -24 9 -33 30 -3 9
-6 6 -6 -10 -1 -20 -3 -22 -11 -10 -8 12 -10 10 -11 -10 0 -14 -3 -20 -5 -13
-3 7 -11 10 -18 7 -8 -3 -16 3 -20 12 -8 22 2 33 14 14 8 -13 10 -12 10 3 0
15 -11 22 -33 18 -5 -1 -5 9 -2 21 4 13 4 20 0 16 -5 -5 -15 2 -23 13 -12 18
-13 23 -1 31 12 8 11 9 -1 5 -15 -4 -56 49 -52 66 1 5 -2 6 -7 3 -5 -4 -19 7
-30 22 -26 37 -111 102 -178 137 -227 117 -535 70 -711 -108 -59 -59 -132
-156 -132 -175 0 -5 -8 -20 -19 -33 -10 -13 -18 -28 -17 -34 0 -5 -23 -11 -51
-13 -32 -2 -53 1 -53 7 0 6 -18 11 -39 11 -22 0 -43 5 -46 10 -9 15 -25 12
-25 -6 0 -9 5 -12 12 -8 7 5 9 2 5 -9 -4 -12 1 -17 21 -20 21 -3 19 -4 -10 -6
-34 -1 -38 2 -38 22 0 13 8 48 19 78 113 330 411 559 756 581 92 6 231 -10
310 -37z m-121 -251 c90 -23 178 -69 244 -130 56 -50 130 -149 120 -159 -2 -3
-63 4 -134 14 -243 36 -595 36 -811 1 -31 -5 -59 -7 -62 -5 -9 9 72 116 118
156 55 48 171 107 243 125 75 18 209 17 282 -2z m266 -388 c199 -31 473 -107
453 -126 -9 -10 -196 -60 -223 -60 -11 0 -21 13 -29 39 -14 50 -50 76 -132 98
-56 16 -111 18 -424 18 -367 0 -487 -9 -565 -41 -43 -18 -79 -51 -91 -83 -9
-22 -13 -23 -62 -17 -28 4 -92 14 -142 23 l-90 17 63 28 c111 50 313 95 552
122 93 10 590 -3 690 -18z m333 -12 c-4 -11 -63 -6 -63 5 0 4 15 7 34 7 19 -1
32 -5 29 -12z m54 10 c-3 -3 -12 -4 -19 -1 -8 3 -5 6 6 6 11 1 17 -2 13 -5z
m33 -44 c8 -5 11 -10 5 -10 -5 0 -17 5 -25 10 -8 5 -10 10 -5 10 6 0 17 -5 25
-10z m-415 -31 c84 -11 148 -37 159 -64 12 -31 6 -101 -15 -175 -61 -220 -214
-379 -411 -425 -135 -32 -317 -10 -431 52 -153 84 -283 287 -288 454 -3 91 22
118 136 145 129 30 655 38 850 13z m-1045 -734 l44 -45 -100 -103 -101 -102
20 -48 c27 -61 17 -95 -36 -121 -32 -15 -42 -16 -68 -6 -36 15 -49 37 -49 84
0 33 -3 36 -27 36 -39 0 -91 34 -99 65 -21 84 51 136 142 103 32 -11 32 -11
124 85 51 54 95 97 99 97 4 0 27 -20 51 -45z m463 38 c9 -15 -13 -53 -30 -53
-34 0 -44 14 -27 38 15 21 48 30 57 15z m391 -17 c15 -24 14 -25 -15 -35 -24
-8 -31 -7 -34 4 -3 8 -7 21 -9 29 -11 34 35 36 58 2z m716 -169 c72 29 130 -8
130 -83 0 -53 -33 -84 -89 -84 l-36 0 0 -46 c0 -55 -28 -84 -82 -84 -71 0
-102 69 -66 145 l17 36 -107 107 -107 107 48 48 47 47 103 -104 103 -104 39
15z m-1000 142 c0 -31 -1 -32 -41 -26 -49 6 -50 7 -42 35 4 18 13 22 44 22 37
0 39 -2 39 -31z m203 9 c7 -27 -7 -38 -50 -38 -28 0 -33 4 -33 23 0 31 7 37
46 37 24 0 33 -5 37 -22z m-113 -18 c0 -19 -5 -30 -14 -30 -30 0 -46 13 -46
36 0 20 5 24 30 24 27 0 30 -3 30 -30z m-196 -35 c44 -9 81 -17 83 -18 1 -2
-2 -20 -8 -41 -10 -34 -13 -37 -37 -31 -49 12 -142 58 -142 69 0 9 19 36 25
36 0 0 36 -7 79 -15z m416 -4 c5 -11 10 -25 10 -31 0 -14 -79 -48 -130 -56
-37 -6 -38 -6 -47 32 l-9 39 76 16 c41 9 78 17 82 18 4 0 12 -8 18 -18z m-203
-56 l10 -45 -60 0 -59 0 7 37 c9 51 11 53 54 53 36 0 38 -1 48 -45z m-281 -29
c82 -39 133 -50 244 -50 89 1 117 5 180 28 95 34 92 33 97 18 8 -20 -120 -140
-179 -167 -77 -36 -156 -34 -234 5 -71 35 -190 150 -181 174 8 21 14 20 73 -8z"/>
<path d="M485 1389 c-4 -6 -4 -13 -1 -16 3 -4 6 -1 6 6 0 8 6 11 16 7 8 -3 12
-2 9 4 -8 13 -22 13 -30 -1z"/>
<path d="M795 1121 c-46 -11 -72 -28 -99 -64 -70 -92 -44 -222 53 -274 170
-90 345 97 242 258 -40 64 -123 97 -196 80z"/>
<path d="M1321 1120 c-121 -29 -178 -177 -108 -281 37 -55 91 -80 163 -77 76
5 127 39 156 106 61 137 -64 286 -211 252z"/>
<path d="M1050 760 c-45 -45 -11 -120 53 -120 43 0 67 26 67 73 0 26 -6 40
-22 51 -31 22 -74 20 -98 -4z"/>
</g>
</svg>
